<svg xmlns="http://www.w3.org/2000/svg" width="24" height="24" viewBox="0 0 24 24">
  <path d="M4.15 5.75h15.7v12.95H4.15V5.75Z" fill="#F7FCFF" stroke="#283142" stroke-width="1.35" stroke-linejoin="round"/>
  <path d="M6.35 8.15h4.65v3.65H6.35V8.15Z" fill="#CFF7E6" stroke="#283142" stroke-width="1.05" stroke-linejoin="round"/>
  <path d="M13 8.15h4.65v3.65H13V8.15Z" fill="#FFE3A3" stroke="#283142" stroke-width="1.05" stroke-linejoin="round"/>
  <path d="M6.35 14.15h11.3v2.15H6.35v-2.15Z" fill="#E9F7FF" stroke="#283142" stroke-width="1.05" stroke-linejoin="round"/>
  <path d="M8.7 8.15v3.65M15.35 8.15v3.65M8.05 15.25h7.9" fill="none" stroke="#35B8A9" stroke-width="1.05" stroke-linecap="round"/>
  <path d="M6.2 3.85h6.1l1.25 1.9H6.2v-1.9Z" fill="#FFF8E7" stroke="#283142" stroke-width="1.05" stroke-linejoin="round"/>
  <path d="M19.15 3.7l.45.95.95.45-.95.45-.45.95-.45-.95-.95-.45.95-.45.45-.95Z" fill="none" stroke="#FF9F1C" stroke-width="1.05" stroke-linecap="round" stroke-linejoin="round"/>
  <path d="M20.2 17.45l.38.82.82.38-.82.38-.38.82-.38-.82-.82-.38.82-.38.38-.82Z" fill="#FF6B6B"/>
</svg>
