<svg xmlns="http://www.w3.org/2000/svg" width="96" height="96" viewBox="0 0 96 96">
  <defs>
    <linearGradient id="g" x1="12" y1="12" x2="84" y2="84" gradientUnits="userSpaceOnUse">
      <stop stop-color="#FFD36E"/>
      <stop offset="1" stop-color="#FF7A90"/>
    </linearGradient>
  </defs>
  <rect x="10" y="10" width="76" height="76" rx="24" fill="url(#g)" opacity="0.20"/>
  <path d="M24 74V38c0-8 6-14 14-14h20c8 0 14 6 14 14v36" fill="none" stroke="#FAFAFF" stroke-width="6" stroke-linecap="round"/>
  <path d="M34 74V42c0-3 2-6 6-6h16c4 0 6 3 6 6v32" fill="#1E2633" opacity="0.84"/>
  <path d="M34 50h28M34 62h28" stroke="#FAFAFF" stroke-width="4" stroke-linecap="round" opacity="0.45"/>
  <circle cx="48" cy="28" r="5" fill="#FFD36E"/>
  <path d="M38 50l8 8 16-18" fill="none" stroke="#7CFFBF" stroke-width="6" stroke-linecap="round" stroke-linejoin="round"/>
  <path d="M22 78h52" stroke="#FAFAFF" stroke-width="6" stroke-linecap="round"/>
</svg>
