<svg width="96" height="96" viewBox="0 0 96 96" fill="none" xmlns="http://www.w3.org/2000/svg">
  <rect x="8" y="10" width="80" height="76" rx="24" fill="#FFF9E8"/>
  <path d="M18 62H78V78H18V62Z" fill="#FFE28A" stroke="#5E4B00" stroke-width="4" stroke-linejoin="round"/>
  <path d="M22 62V42L36 50V42L50 50V36L64 44V62H22Z" fill="#FFFFFF" stroke="#5E4B00" stroke-width="4" stroke-linejoin="round"/>
  <path d="M61 31H73L76 62H58L61 31Z" fill="#FFB703" stroke="#5E4B00" stroke-width="4" stroke-linejoin="round"/>
  <path d="M26 57H32M39 57H45M52 57H58" stroke="#44C08A" stroke-width="5" stroke-linecap="round"/>
  <path d="M22 26C34 16 54 16 66 26" stroke="#4FA3FF" stroke-width="6" stroke-linecap="round"/>
  <path d="M66 26L55 25L61 16" fill="#4FA3FF" stroke="#0B3D5C" stroke-width="3" stroke-linejoin="round"/>
  <path d="M74 70C58 82 36 82 20 70" stroke="#44C08A" stroke-width="6" stroke-linecap="round"/>
  <path d="M20 70L31 71L25 80" fill="#44C08A" stroke="#0B6B5C" stroke-width="3" stroke-linejoin="round"/>
  <circle cx="28" cy="30" r="5" fill="#FF8A3D"/>
  <circle cx="72" cy="24" r="4" fill="#FF8A3D"/>
</svg>
